<?xml version="1.0" encoding="UTF-8"?>
<svg id="Layer_2" data-name="Layer 2" xmlns="http://www.w3.org/2000/svg" viewBox="0 0 473.32 86.77">
  <defs>
    <style>
      .cls-1 {
        fill: #58b031;
      }

      .cls-1, .cls-2, .cls-3, .cls-4, .cls-5 {
        stroke-width: 0px;
      }

      .cls-2 {
        fill: #10672f;
      }

      .cls-3 {
        fill: #1d1d1b;
      }

      .cls-4 {
        fill: #2e9237;
      }

      .cls-5 {
        fill: #bbe1eb;
      }
    </style>
  </defs>
  <g id="Lager_1" data-name="Lager 1">
    <path class="cls-5" d="M74.16,12.82s-.02.01-.02.01c-21.72,13.82-38.17,56.06-62.75,59.69l-.62-.54c-.86-.97-1.67-1.98-2.44-3.02-1.07-1.45-2.04-2.97-2.9-4.52-.2-.38-.41-.73-.6-1.11C1.66,57.2,0,50.41,0,43.38,0,19.46,19.46,0,43.38,0c11.69,0,22.73,4.73,30.78,12.82Z"/>
    <path class="cls-1" d="M86.48,38.29c-23.05,3.44-46.08,36.49-69.18,39.14-.24.02-.48.05-.72.06-.11-.08-.2-.16-.31-.24-.2-.16-.39-.32-.59-.48-.11-.09-.2-.18-.31-.26-.31-.28-.64-.55-.94-.84-.09-.08-.2-.16-.28-.25-1.19-1.07-2.32-2.22-3.38-3.45l.62.54c24.58-3.63,41.03-45.87,62.75-59.69,0,0,.01-.01.02-.01.08.08.16.16.25.25.24.25.48.49.72.75,2.28,2.45,4.32,5.19,6.01,8.17,2.25,3.94,3.84,8.23,4.74,12.69.08.38.15.74.21,1.12,0,.01,0,.04.01.05.06.36.13.74.19,1.12.01.07.02.15.02.22.06.36.11.73.15,1.11Z"/>
    <path class="cls-4" d="M86.76,42.45c.01.31.01.61.01.93h0c0,5.44-.98,10.69-2.92,15.67-.14.39-.29.78-.46,1.14-.01.02-.01.04-.02.06-.13.32-.26.62-.41.93-.02.07-.06.14-.09.21-.12.28-.25.55-.38.84-.01.02-.02.06-.05.08-18.31.74-36.64,17.76-54.95,21.37-.02,0-.04.01-.06.01-.25-.09-.48-.2-.73-.31h-.01c-.22-.08-.44-.18-.65-.27-.24-.09-.48-.2-.72-.31-.39-.18-.79-.38-1.18-.57-.22-.11-.45-.22-.66-.33-2.42-1.26-4.74-2.74-6.91-4.44-.11-.08-.2-.16-.31-.24.24-.02.48-.06.72-.08,23.12-2.71,46.22-36.12,69.34-39.98.06.36.11.73.15,1.11.15,1.38.26,2.77.28,4.17Z"/>
    <path class="cls-2" d="M82.96,61.18c-.02.07-.06.14-.09.21-.12.28-.25.55-.38.84-.01.02-.02.06-.05.08-.13.27-.27.53-.41.82-.42.81-.86,1.61-1.33,2.39,0,.01-.01.01-.01.01-.01.02-.02.05-.05.07-3.68,6.2-8.87,11.37-15.04,15.04-2.05,1.24-4.23,2.3-6.49,3.18-2.92,1.14-5.97,1.95-9.05,2.42-2.2.35-4.45.52-6.67.52-5.52,0-10.93-1.06-15.96-3.07-.25-.09-.48-.2-.73-.31.02,0,.06-.01.08-.01,18.73-3.57,37.45-21.5,56.18-22.2Z"/>
    <path class="cls-1" d="M99.36,24.67h12.53v5.55h.15c3.04-4.56,7.75-6.76,12.61-6.76,7.9,0,14.59,5.7,14.59,16.86v26.89h-12.69v-21.27c0-3.8,0-10.33-6.68-10.33-3.65,0-7.82,1.98-7.82,10.33v21.27h-12.69V24.67Z"/>
    <path class="cls-1" d="M145.62,55.59c0-7.9,6-11.09,13.14-12.61,10.18-2.2,12.31-2.58,12.31-5.17s-2.05-4.1-5.32-4.1c-2.96,0-5.85,1.44-7.14,5.93l-11.77-3.95c2.73-9.12,10.71-12.23,19.37-12.23,11.55,0,17.62,5.55,17.62,15.42v15.04c0,6.91.53,9.95,1.37,13.29h-12.61c-.53-1.37-.68-2.81-.68-4.41h-.15c-2.13,3.65-6.84,5.7-11.55,5.7-7.29,0-14.59-4.18-14.59-12.91ZM164.08,58.85c4.41,0,7.06-3.42,7.06-7.29v-2.58c-2.13.61-6.53,1.67-7.67,1.98-2.73.76-3.95,2.28-3.95,4.25,0,2.58,2.05,3.65,4.56,3.65Z"/>
    <path class="cls-4" d="M197.05,53.38v-17.17h-8.36v-11.55h8.36v-11.85h12.69v11.85h10.94v11.55h-10.94v12.46c0,3.72,0,8.28,5.7,8.28,2.05,0,3.87-.61,5.24-1.14v11.24c-2.13,1.06-4.94,1.44-7.9,1.44-15.72,0-15.72-10.94-15.72-15.12Z"/>
    <path class="cls-4" d="M227.28,51.33v-26.66h12.69v22.41c0,4.94,1.44,9.27,6.38,9.27,4.48,0,7.37-3.57,7.37-9.27v-22.41h12.69v29.25c0,7.06.53,9.95,1.37,13.29h-12.61c-.45-2.05-.76-3.34-.68-4.25h-.15c-2.05,3.04-5.39,5.55-11.7,5.55-10.03,0-15.34-6.23-15.34-17.17Z"/>
    <path class="cls-2" d="M275.74,24.67h12.53v5.77h.3c2.13-3.49,5.77-6.99,11.32-6.99,1.29,0,2.35.15,3.87.68v14.28c-1.82-.61-3.87-.76-5.17-.76-10.18,0-10.18,9.27-10.18,14.66v14.89h-12.69V24.67Z"/>
    <path class="cls-2" d="M306.13,55.59c0-7.9,6-11.09,13.14-12.61,10.18-2.2,12.31-2.58,12.31-5.17s-2.05-4.1-5.32-4.1c-2.96,0-5.85,1.44-7.14,5.93l-11.77-3.95c2.73-9.12,10.71-12.23,19.37-12.23,11.55,0,17.62,5.55,17.62,15.42v15.04c0,6.91.53,9.95,1.37,13.29h-12.61c-.53-1.37-.68-2.81-.68-4.41h-.15c-2.13,3.65-6.84,5.7-11.55,5.7-7.29,0-14.59-4.18-14.59-12.91ZM324.59,58.85c4.41,0,7.06-3.42,7.06-7.29v-2.58c-2.13.61-6.53,1.67-7.67,1.98-2.73.76-3.95,2.28-3.95,4.25,0,2.58,2.05,3.65,4.56,3.65Z"/>
    <path class="cls-3" d="M357.56,53.38v-17.17h-8.36v-11.55h8.36v-11.85h12.69v11.85h10.94v11.55h-10.94v12.46c0,3.72,0,8.28,5.7,8.28,2.05,0,3.87-.61,5.24-1.14v11.24c-2.13,1.06-4.94,1.44-7.9,1.44-15.72,0-15.72-10.94-15.72-15.12Z"/>
    <path class="cls-3" d="M387.79,51.33v-26.66h12.69v22.41c0,4.94,1.44,9.27,6.38,9.27,4.48,0,7.37-3.57,7.37-9.27v-22.41h12.69v29.25c0,7.06.53,9.95,1.37,13.29h-12.61c-.45-2.05-.76-3.34-.68-4.25h-.15c-2.05,3.04-5.39,5.55-11.7,5.55-10.03,0-15.34-6.23-15.34-17.17Z"/>
    <path class="cls-3" d="M433.74,55.59c0-7.9,6-11.09,13.14-12.61,10.18-2.2,12.31-2.58,12.31-5.17s-2.05-4.1-5.32-4.1c-2.96,0-5.85,1.44-7.14,5.93l-11.77-3.95c2.73-9.12,10.71-12.23,19.37-12.23,11.55,0,17.62,5.55,17.62,15.42v15.04c0,6.91.53,9.95,1.37,13.29h-12.61c-.53-1.37-.68-2.81-.68-4.41h-.15c-2.13,3.65-6.84,5.7-11.55,5.7-7.29,0-14.59-4.18-14.59-12.91ZM452.2,58.85c4.41,0,7.06-3.42,7.06-7.29v-2.58c-2.13.61-6.53,1.67-7.67,1.98-2.73.76-3.95,2.28-3.95,4.25,0,2.58,2.05,3.65,4.56,3.65Z"/>
  </g>
</svg>